<svg width="24" height="24" viewBox="0 0 24 24" fill="none" xmlns="http://www.w3.org/2000/svg">
<path d="M11.1174 3.66277C11.4934 2.95486 12.5078 2.95486 12.8838 3.66277L14.8398 7.34562C14.9843 7.61777 15.2463 7.80807 15.5498 7.86144L19.6568 8.58368C20.4463 8.7225 20.7597 9.68721 20.2026 10.2635L17.3045 13.2619C17.0903 13.4834 16.9903 13.7914 17.0333 14.0965L17.6156 18.2257C17.7275 19.0194 16.9068 19.6156 16.1866 19.2639L12.4394 17.4342C12.1625 17.2989 11.8387 17.2989 11.5618 17.4342L7.81461 19.2639C7.09433 19.6156 6.27369 19.0194 6.38561 18.2257L6.96787 14.0965C7.0109 13.7914 6.91085 13.4834 6.69669 13.2619L3.79854 10.2635C3.24146 9.68721 3.55492 8.7225 4.34437 8.58368L8.45142 7.86144C8.75491 7.80807 9.01685 7.61776 9.16139 7.34562L11.1174 3.66277Z" fill="#0FBA12"/>
</svg>
