<svg width="31" height="30" viewBox="0 0 31 30" fill="none" xmlns="http://www.w3.org/2000/svg">
<g clip-path="url(#clip0_2876_13396)">
<path d="M15.5938 0C19.572 0 23.3873 1.58035 26.2004 4.3934C29.0134 7.20644 30.5938 11.0218 30.5938 15C30.5938 18.9782 29.0134 22.7936 26.2004 25.6066C23.3873 28.4196 19.572 30 15.5938 30C11.6155 30 7.80019 28.4196 4.98715 25.6066C2.1741 22.7936 0.59375 18.9782 0.59375 15C0.59375 11.0218 2.1741 7.20644 4.98715 4.3934C7.80019 1.58035 11.6155 0 15.5938 0V0ZM9.03125 14.0625C8.78261 14.0625 8.54415 14.1613 8.36834 14.3371C8.19252 14.5129 8.09375 14.7514 8.09375 15C8.09375 15.2486 8.19252 15.4871 8.36834 15.6629C8.54415 15.8387 8.78261 15.9375 9.03125 15.9375H19.8931L15.8675 19.9613C15.7803 20.0484 15.7112 20.1519 15.664 20.2658C15.6168 20.3797 15.5926 20.5017 15.5926 20.625C15.5926 20.7483 15.6168 20.8703 15.664 20.9842C15.7112 21.0981 15.7803 21.2016 15.8675 21.2887C15.9547 21.3759 16.0581 21.4451 16.172 21.4922C16.2859 21.5394 16.408 21.5637 16.5312 21.5637C16.6545 21.5637 16.7766 21.5394 16.8905 21.4922C17.0044 21.4451 17.1078 21.3759 17.195 21.2887L22.82 15.6637C22.9073 15.5767 22.9766 15.4732 23.0238 15.3593C23.0711 15.2454 23.0954 15.1233 23.0954 15C23.0954 14.8767 23.0711 14.7546 23.0238 14.6407C22.9766 14.5268 22.9073 14.4233 22.82 14.3363L17.195 8.71125C17.1078 8.62408 17.0044 8.55494 16.8905 8.50777C16.7766 8.4606 16.6545 8.43632 16.5312 8.43632C16.408 8.43632 16.2859 8.4606 16.172 8.50777C16.0581 8.55494 15.9547 8.62408 15.8675 8.71125C15.7803 8.79842 15.7112 8.90189 15.664 9.01578C15.6168 9.12967 15.5926 9.25173 15.5926 9.375C15.5926 9.49827 15.6168 9.62033 15.664 9.73422C15.7112 9.84811 15.7803 9.95158 15.8675 10.0387L19.8931 14.0625H9.03125Z" fill="#0FBA12"/>
</g>
<defs>
<clipPath id="clip0_2876_13396">
<rect width="30" height="30" fill="white" transform="translate(0.59375)"/>
</clipPath>
</defs>
</svg>
