<svg width="30" height="30" viewBox="0 0 30 30" fill="none" xmlns="http://www.w3.org/2000/svg">
<path d="M8.4375 14.0627C8.18886 14.0627 7.9504 14.1615 7.77459 14.3373C7.59877 14.5131 7.5 14.7516 7.5 15.0002C7.5 15.2488 7.59877 15.4873 7.77459 15.6631C7.9504 15.8389 8.18886 15.9377 8.4375 15.9377H19.2994L15.2738 19.9615C15.1866 20.0486 15.1174 20.1521 15.0703 20.266C15.0231 20.3799 14.9988 20.5019 14.9988 20.6252C14.9988 20.7485 15.0231 20.8705 15.0703 20.9844C15.1174 21.0983 15.1866 21.2018 15.2738 21.289C15.3609 21.3761 15.4644 21.4453 15.5783 21.4924C15.6922 21.5396 15.8142 21.5639 15.9375 21.5639C16.0608 21.5639 16.1828 21.5396 16.2967 21.4924C16.4106 21.4453 16.5141 21.3761 16.6012 21.289L22.2262 15.664C22.3136 15.5769 22.3828 15.4734 22.4301 15.3595C22.4773 15.2456 22.5017 15.1235 22.5017 15.0002C22.5017 14.8769 22.4773 14.7548 22.4301 14.6409C22.3828 14.527 22.3136 14.4235 22.2262 14.3365L16.6012 8.71146C16.5141 8.62429 16.4106 8.55515 16.2967 8.50798C16.1828 8.4608 16.0608 8.43652 15.9375 8.43652C15.8142 8.43652 15.6922 8.4608 15.5783 8.50798C15.4644 8.55515 15.3609 8.62429 15.2738 8.71146C15.1866 8.79862 15.1174 8.9021 15.0703 9.01599C15.0231 9.12987 14.9988 9.25194 14.9988 9.37521C14.9988 9.49848 15.0231 9.62054 15.0703 9.73443C15.1174 9.84831 15.1866 9.95179 15.2738 10.039L19.2994 14.0627H8.4375Z" fill="#0FBA12"/>
</svg>
