<svg width="49" height="48" viewBox="0 0 49 48" fill="none" xmlns="http://www.w3.org/2000/svg">
<path d="M35.3887 1.5H14.3887C12.7979 1.50174 11.2728 2.13444 10.1479 3.25928C9.02311 4.38412 8.39041 5.90923 8.38867 7.5V40.5C8.39041 42.0908 9.02311 43.6159 10.1479 44.7407C11.2728 45.8656 12.7979 46.4983 14.3887 46.5H35.3887C36.9794 46.4983 38.5046 45.8656 39.6294 44.7407C40.7542 43.6159 41.3869 42.0908 41.3887 40.5V7.5C41.3869 5.90923 40.7542 4.38412 39.6294 3.25928C38.5046 2.13444 36.9794 1.50174 35.3887 1.5ZM32.1524 26.6728C32.8621 27.4388 33.209 28.4691 33.1265 29.5734C32.9643 31.7728 31.2871 33.5625 29.3887 33.5625C27.4902 33.5625 25.8102 31.7728 25.6499 29.5734C25.5693 28.4578 25.9134 27.4256 26.6193 26.6672C27.3252 25.9088 28.3012 25.5 29.3887 25.5C29.9056 25.4926 30.4183 25.593 30.8942 25.795C31.3701 25.9969 31.7986 26.2959 32.1524 26.6728ZM18.8887 7.5C18.8887 7.10218 19.0467 6.72064 19.328 6.43934C19.6093 6.15804 19.9908 6 20.3887 6H29.3887C29.7865 6 30.168 6.15804 30.4493 6.43934C30.7306 6.72064 30.8887 7.10218 30.8887 7.5C30.8887 7.89782 30.7306 8.27936 30.4493 8.56066C30.168 8.84196 29.7865 9 29.3887 9H20.3887C19.9908 9 19.6093 8.84196 19.328 8.56066C19.0467 8.27936 18.8887 7.89782 18.8887 7.5ZM36.6074 41.6091C36.4994 41.7341 36.3652 41.8339 36.2144 41.9015C36.0636 41.969 35.8998 42.0026 35.7346 42H23.0427C22.8775 42.0026 22.7137 41.969 22.5629 41.9015C22.4121 41.8339 22.278 41.7341 22.1699 41.6091C22.0528 41.4687 21.9687 41.3039 21.9239 41.1267C21.8791 40.9495 21.8748 40.7644 21.9112 40.5853C22.2159 38.9391 23.1655 37.5563 24.658 36.5859C25.9837 35.7244 27.6637 35.25 29.3887 35.25C31.1137 35.25 32.7937 35.7244 34.1193 36.5859C35.6118 37.5563 36.5615 38.9391 36.8662 40.5853C36.9026 40.7644 36.8982 40.9495 36.8534 41.1267C36.8086 41.3039 36.7246 41.4687 36.6074 41.6091Z" fill="#FFB649"/>
</svg>
