<svg width="49" height="48" viewBox="0 0 49 48" fill="none" xmlns="http://www.w3.org/2000/svg">
<path d="M11.4727 15.92L12.5127 14.86C13.6727 13.7 15.5927 13.7 16.7927 14.94L16.8327 15C17.8127 16 19.1127 16.48 20.5327 16.62C22.4727 16.8 24.3527 17.84 25.5927 19.72C26.9527 21.88 26.9327 24.76 25.5127 26.9C24.9771 27.747 24.2568 28.4618 23.4059 28.991C22.5549 29.5202 21.5952 29.8501 20.5987 29.9559C19.6022 30.0617 18.5947 29.9407 17.6516 29.602C16.7084 29.2633 15.8542 28.7156 15.1527 28C14.0327 26.9 13.3927 25.48 13.2327 24C13.0727 22.54 12.4927 21.16 11.4727 20.14C10.3127 19 10.3127 17.08 11.4727 15.92ZM19.8727 32C17.5327 32 15.3527 31.1 13.7327 29.44C12.3327 28 11.4527 26.2 11.2327 24.24C11.1727 23.64 10.9927 22.86 10.5127 22.14C9.31266 23.8 8.59266 25.8 8.59266 28C8.59266 31.28 10.1927 34.18 12.6527 36H38.5927V34C38.5927 26.8 33.8127 20.7 27.2727 18.7C29.0527 21.5 29.0127 25.24 27.1927 28C25.5927 30.5 22.8327 32 19.8727 32ZM30.1527 15.12H32.6927C34.4327 15.12 35.9527 16.34 35.9527 18.52V20H38.4527V18C38.4527 15 35.7927 12.72 32.6927 12.72H30.1527C28.4927 12.72 27.0727 11.08 27.0727 9.4C27.0727 7.72 28.4927 6.48 30.1527 6.48V4C27.0727 4 24.5927 6.48 24.5927 9.56C24.5927 12.64 27.0727 15.12 30.1527 15.12ZM9.59266 15.1C9.71266 14.9 9.87266 14.7 10.0527 14.5L11.0927 13.46C11.2727 13.28 11.4727 13.14 11.6727 13L8.85266 10.14C9.13266 9.6 9.03266 8.9 8.59266 8.44C8.30625 8.16121 7.92235 8.00521 7.52266 8.00521C7.12297 8.00521 6.73906 8.16121 6.45266 8.44C6.17266 8.72 6.03266 9.06 6.01266 9.42C5.65266 9.44 5.31266 9.58 5.03266 9.86C4.45266 10.44 4.45266 11.4 5.03266 12C5.49266 12.44 6.17266 12.54 6.73266 12.26L9.59266 15.1ZM37.3727 8.78C38.3927 7.76 39.0327 6.38 39.0327 4.84H36.5327C36.5327 6.5 35.1327 7.9 33.4727 7.9V10.38C37.1927 10.38 40.1127 13.42 40.1127 17.14V22H42.5927V17.14C42.6026 15.3954 42.1175 13.6838 41.1935 12.204C40.2694 10.7242 38.9445 9.53685 37.3727 8.78ZM10.5927 42H38.5927C40.8127 42 42.5927 40.22 42.5927 38H6.59266C6.59266 39.0609 7.01408 40.0783 7.76423 40.8284C8.51437 41.5786 9.53179 42 10.5927 42Z" fill="#FF49B6"/>
</svg>
