<svg width="49" height="48" viewBox="0 0 49 48" fill="none" xmlns="http://www.w3.org/2000/svg">
<path d="M14.9925 17.3998L16.8909 4.7998H7.01727L2.89167 15.5998C2.76447 15.9838 2.69727 16.3822 2.69727 16.7998C2.69727 19.4494 5.45727 21.5998 8.86767 21.5998C12.0117 21.5998 14.6109 19.7662 14.9925 17.3998ZM24.2973 21.5998C27.7053 21.5998 30.4677 19.4494 30.4677 16.7998C30.4677 16.7014 30.4605 16.603 30.4557 16.5094L29.2341 4.7998H19.3605L18.1365 16.4998C18.1308 16.5997 18.1276 16.6997 18.1269 16.7998C18.1269 19.4494 20.8893 21.5998 24.2973 21.5998ZM36.2973 24.1102V33.5998H12.2973V24.1246C11.2461 24.5038 10.0893 24.7198 8.86767 24.7198C8.39967 24.7198 7.94607 24.6646 7.49727 24.6022V39.8398C7.49727 41.6878 9.00687 43.1998 10.8525 43.1998H37.7373C39.5853 43.1998 41.0973 41.6854 41.0973 39.8398V24.6046C40.6436 24.6743 40.1858 24.7135 39.7269 24.7222C38.5566 24.721 37.3957 24.5139 36.2973 24.1102ZM45.7053 15.5998L41.5749 4.7998H31.7037L33.5997 17.3806C33.9693 19.7566 36.5685 21.5998 39.7269 21.5998C43.1349 21.5998 45.8973 19.4494 45.8973 16.7998C45.8973 16.3822 45.8301 15.9838 45.7053 15.5998Z" fill="#29DB0C"/>
</svg>
