<svg width="30" height="30" viewBox="0 0 30 30" fill="none" xmlns="http://www.w3.org/2000/svg">
<path d="M13.2737 2.95094C14.046 1.63079 15.954 1.63079 16.7263 2.95094L17.2345 3.8197C17.747 4.69571 18.8343 5.04901 19.7638 4.64153L20.6857 4.23741C22.0864 3.62333 23.63 4.74484 23.4789 6.2668L23.3794 7.26837C23.2791 8.2783 23.9511 9.20325 24.9426 9.41994L25.9259 9.63482C27.4201 9.96137 28.0097 11.776 26.9928 12.9184L26.3236 13.6703C25.6488 14.4283 25.6488 15.5717 26.3236 16.3297L26.9928 17.0816C28.0097 18.224 27.4201 20.0386 25.9259 20.3652L24.9426 20.5801C23.9511 20.7967 23.2791 21.7217 23.3794 22.7316L23.4789 23.7332C23.63 25.2552 22.0864 26.3767 20.6856 25.7626L19.7638 25.3585C18.8343 24.951 17.747 25.3043 17.2345 26.1803L16.7263 27.0491C15.954 28.3692 14.046 28.3692 13.2737 27.0491L12.7655 26.1803C12.253 25.3043 11.1657 24.951 10.2362 25.3585L9.31435 25.7626C7.91359 26.3767 6.36996 25.2552 6.52113 23.7332L6.62061 22.7316C6.72093 21.7217 6.04891 20.7967 5.05741 20.5801L4.07412 20.3652C2.57993 20.0386 1.99032 18.224 3.00721 17.0816L3.67639 16.3297C4.35117 15.5717 4.35117 14.4283 3.6764 13.6703L3.00721 12.9184C1.99032 11.776 2.57994 9.96136 4.07412 9.63482L5.05741 9.41993C6.04891 9.20325 6.72093 8.2783 6.62061 7.26837L6.52113 6.2668C6.36996 4.74484 7.91359 3.62333 9.31435 4.23741L10.2362 4.64153C11.1657 5.04901 12.253 4.69571 12.7655 3.8197L13.2737 2.95094Z" fill="url(#paint0_linear_3286_59136)"/>
<path d="M10 15.4545C11.9897 17.7187 12.9438 18.6158 13.3875 18.9712C13.6039 19.1446 13.8574 19.0892 14.0465 18.8864L20 12.5" stroke="#133149" stroke-width="2" stroke-linecap="round" stroke-linejoin="round"/>
<defs>
<linearGradient id="paint0_linear_3286_59136" x1="27.8071" y1="4.74828e-08" x2="11.5328" y2="31.6658" gradientUnits="userSpaceOnUse">
<stop stop-color="#3FBA69"/>
<stop offset="1" stop-color="#4EFB85"/>
</linearGradient>
</defs>
</svg>
